<svg width="225" height="458" viewBox="0 0 225 458" fill="none" xmlns="http://www.w3.org/2000/svg">
<path d="M76.8562 210C76.8562 129.214 142.387 63.8562 223 63.8562V-36C209.651 -36 196.649 -34.9598 183.82 -32.8795L174.112 11.5011C153.829 16.5285 134.586 24.5032 117.249 35.0782L78.9366 10.6343C57.6131 26.0634 39.0634 44.7865 23.6343 65.9366L48.0782 104.249C37.5032 121.759 29.5285 140.829 24.5011 161.112L-19.8795 170.82C-21.9598 183.649 -23 196.651 -23 210C-23 223.349 -21.9598 236.351 -19.8795 249.18L24.5011 258.888C29.5285 279.171 37.5032 298.414 48.0782 315.751L23.6343 354.063C39.0634 375.387 57.7865 393.937 78.9366 409.366L117.249 384.922C134.759 395.497 153.829 403.471 174.112 408.499L183.82 452.88C196.649 454.96 209.651 456 223 456V356.144C142.214 356.144 76.8562 290.786 76.8562 210Z" fill="#F3F3F3"/>
<path d="M223 64.8562H224V63.8562V-36V-37H223C209.599 -37 196.543 -35.9557 183.66 -33.8666L182.989 -33.7577L182.843 -33.0932L173.268 10.681C153.318 15.6881 134.376 23.5362 117.262 33.9002L79.4744 9.79122L78.9012 9.4255L78.3504 9.82409C56.9385 25.3172 38.3149 44.1158 22.8264 65.3472L22.424 65.8988L22.7912 66.4744L46.9018 104.265C36.5391 121.539 28.6894 140.317 23.681 160.268L-20.0932 169.843L-20.7577 169.989L-20.8666 170.66C-22.9557 183.543 -24 196.599 -24 210C-24 223.401 -22.9557 236.457 -20.8666 249.34L-20.7577 250.011L-20.0932 250.157L23.681 259.732C28.6881 279.682 36.5362 298.624 46.9002 315.738L22.7912 353.526L22.4255 354.099L22.8241 354.65C38.3172 376.061 57.1158 394.685 78.3472 410.174L78.8988 410.576L79.4744 410.209L117.265 386.098C134.539 396.461 153.317 404.311 173.268 409.319L182.843 453.093L182.989 453.758L183.66 453.867C196.543 455.956 209.599 457 223 457H224V456V356.144V355.144H223C142.766 355.144 77.8562 290.234 77.8562 210C77.8562 129.767 142.938 64.8562 223 64.8562Z" stroke="white" stroke-opacity="0.15" stroke-width="2"/>
</svg>
