<svg width="32" height="32" viewBox="0 0 32 32" fill="none" xmlns="http://www.w3.org/2000/svg">
<path d="M23.4419 2.66667H5.90303C4.11743 2.66667 2.66663 4.11748 2.66663 5.90308V23.4419C2.66663 25.2275 4.11743 26.6783 5.90303 26.6783H14.555L14.5726 18.0969H12.3406C12.0528 18.0969 11.8178 17.8619 11.812 17.5741L11.8002 14.8076C11.8002 14.5139 12.0352 14.279 12.3289 14.279H14.555V11.6064C14.555 8.50513 16.4463 6.8135 19.2128 6.8135H21.4801C21.7679 6.8135 22.0087 7.04845 22.0087 7.34213V9.67399C22.0087 9.9618 21.7738 10.2026 21.4801 10.2026H20.088C18.5843 10.2026 18.2907 10.9192 18.2907 11.9647V14.279H21.5976C21.9147 14.279 22.1556 14.555 22.1203 14.8663L21.7914 17.6329C21.762 17.8972 21.5329 18.0969 21.2686 18.0969H18.3024L18.2848 26.6783H23.4301C25.2158 26.6783 26.6666 25.2275 26.6666 23.4419V5.90308C26.6783 4.11748 25.2275 2.66667 23.4419 2.66667Z" fill="white"/>
</svg>
