<svg width="12" height="12" viewBox="0 0 12 12" fill="none" xmlns="http://www.w3.org/2000/svg">
<path d="M10.092 7.50686C9.65829 7.0787 9.11688 7.0787 8.68596 7.50686C8.35725 7.83281 8.02854 8.15876 7.70535 8.49023C7.61696 8.58139 7.54237 8.60072 7.43465 8.53995C7.22195 8.42394 6.99544 8.33002 6.79103 8.20295C5.83804 7.60354 5.03974 6.83286 4.3326 5.9655C3.98179 5.53459 3.66965 5.07328 3.45143 4.55397C3.40723 4.44901 3.41552 4.37995 3.50115 4.29432C3.82986 3.97666 4.15029 3.65071 4.47347 3.32476C4.92373 2.87174 4.92373 2.34138 4.47071 1.88561C4.21382 1.62595 3.95693 1.37182 3.70003 1.11217C3.43485 0.846987 3.17244 0.579045 2.9045 0.316628C2.47082 -0.106002 1.92941 -0.106002 1.49849 0.31939C1.16702 0.64534 0.849355 0.979577 0.512356 1.3C0.200218 1.59557 0.0427674 1.95743 0.00962001 2.38006C-0.0428634 3.06786 0.125636 3.717 0.363193 4.34957C0.849355 5.65889 1.58965 6.82181 2.48739 7.88805C3.70003 9.32997 5.14747 10.4708 6.84075 11.294C7.60315 11.6641 8.39316 11.9486 9.25223 11.9956C9.84336 12.0287 10.3571 11.8796 10.7687 11.4183C11.0505 11.1034 11.3681 10.8161 11.6665 10.515C12.1084 10.0675 12.1112 9.52609 11.672 9.08412C11.1472 8.55653 10.6196 8.03169 10.092 7.50686Z" fill="#0082C8"/>
</svg>
