<svg width="14" height="14" viewBox="0 0 14 14" fill="none" xmlns="http://www.w3.org/2000/svg">
<path d="M0 7C0 3.15 3.15 0 7 0C10.85 0 14 3.15 14 7C14 10.85 10.85 14 7 14C6.25625 14 5.5125 13.8688 4.8125 13.65C5.29375 10.7625 7.13125 8.4 9.5375 7.39375C9.84375 7.74375 10.2375 7.91875 10.7188 7.91875C11.5938 7.91875 12.2937 7.21875 12.2937 6.34375C12.2937 5.46875 11.5938 4.76875 10.7188 4.76875C9.84375 4.76875 9.14375 5.46875 9.14375 6.34375C6.08125 7.2625 3.5875 9.40625 2.31875 12.1625C1.925 11.8125 1.575 11.4187 1.26875 10.9375C1.35625 8.26875 2.66875 5.90625 4.68125 4.50625C4.9875 4.8125 5.38125 5.03125 5.8625 5.03125C6.7375 5.03125 7.4375 4.33125 7.4375 3.45625C7.4375 2.58125 6.7375 1.88125 5.8625 1.88125C4.9875 1.88125 4.2875 2.58125 4.2875 3.45625C4.2875 3.5 4.2875 3.54375 4.2875 3.5875C2.40625 4.33125 0.875 5.64375 0 7.2625C0 7.175 0 7.0875 0 7Z" fill="white"/>
</svg>
