<svg width="14" height="13" viewBox="0 0 14 13" fill="none" xmlns="http://www.w3.org/2000/svg">
<path fill-rule="evenodd" clip-rule="evenodd" d="M7 0C7.50485 0 7.91412 0.396933 7.91412 0.886574V4.1004C7.91412 4.59004 7.50485 4.98698 7 4.98698C6.49515 4.98698 6.08588 4.59004 6.08588 4.1004V0.886574C6.08588 0.396933 6.49515 0 7 0ZM0.0449869 4.90086C0.200995 4.43518 0.716698 4.18034 1.19684 4.33164L4.34833 5.32477C4.82847 5.47608 5.09124 5.97624 4.93523 6.44192C4.77922 6.9076 4.26352 7.16244 3.78338 7.01114L0.631886 6.01801C0.151742 5.8667 -0.111021 5.36654 0.0449869 4.90086ZM13.955 4.90086C14.111 5.36654 13.8483 5.8667 13.3681 6.01801L10.2166 7.01114C9.73648 7.16244 9.22078 6.9076 9.06477 6.44192C8.90876 5.97624 9.17152 5.47608 9.65167 5.32477L12.8032 4.33164C13.2833 4.18034 13.799 4.43518 13.955 4.90086ZM5.7239 8.79607C6.13234 9.08387 6.22288 9.63831 5.92613 10.0344L3.97841 12.6345C3.68166 13.0306 3.11 13.1184 2.70157 12.8306C2.29313 12.5428 2.20259 11.9884 2.49933 11.5922L4.44706 8.99221C4.74381 8.59608 5.31547 8.50826 5.7239 8.79607ZM8.2761 8.79607C8.68453 8.50826 9.25619 8.59608 9.55294 8.99221L11.5007 11.5922C11.7974 11.9884 11.7069 12.5428 11.2984 12.8306C10.89 13.1184 10.3183 13.0306 10.0216 12.6345L8.07387 10.0344C7.77712 9.63831 7.86766 9.08387 8.2761 8.79607Z" fill="white"/>
</svg>
