<svg width="32" height="32" viewBox="0 0 32 32" fill="none" xmlns="http://www.w3.org/2000/svg">
<path d="M28.7591 8.40129C28.4364 7.20363 27.4903 6.25754 26.2927 5.93489C24.0997 5.33333 15.3333 5.33333 15.3333 5.33333C15.3333 5.33333 6.56695 5.33333 4.37946 5.90754C3.20368 6.2302 2.23571 7.19817 1.91306 8.39582C1.33337 10.5942 1.33337 15.1333 1.33337 15.1333C1.33337 15.1333 1.33337 19.6997 1.90759 21.8653C2.23025 23.0629 3.17634 24.009 4.37399 24.3317C6.58882 24.9333 15.3279 24.9333 15.3279 24.9333C15.3279 24.9333 24.0942 24.9333 26.2817 24.359C27.4794 24.0364 28.4255 23.0903 28.7481 21.8926C29.3333 19.6997 29.3333 15.1606 29.3333 15.1606C29.3333 15.1606 29.3551 10.5942 28.7591 8.40129ZM12.5443 19.3333V10.9388L19.8341 15.1388L12.5443 19.3333Z" fill="white"/>
</svg>
